<svg xmlns="http://www.w3.org/2000/svg" width="51" height="55" viewBox="0 0 51 55" fill="none">
  <path d="M0 0C1.19423 0.314528 2.31053 0.881689 3.34893 1.70148L3.38011 1.72617C4.65869 2.74548 5.37236 4.33196 5.37236 5.9838V48.9444C5.37236 50.5931 4.65924 52.1791 3.38122 53.1936C3.37155 53.2033 3.3607 53.2117 3.34893 53.2186C2.30888 54.0369 1.19257 54.6307 0 55H16.9753C15.7795 54.6299 14.6756 54.0358 13.6637 53.2177C13.1236 52.7816 12.6875 52.2272 12.3877 51.5958C12.088 50.9644 11.9324 50.2724 11.9325 49.5713V39.4886C11.9325 43.7602 13.4242 47.4136 16.4077 50.4487C19.3911 53.4838 22.9604 55.0008 27.1154 54.9997C31.3207 54.9997 34.916 53.4827 37.9012 50.4487C38.4393 49.9035 38.9398 49.3214 39.3995 48.7065V48.7955C39.3995 50.4958 38.6726 52.1303 37.3667 53.1931L37.3363 53.2175C36.3244 54.0358 35.2215 54.6298 34.0277 54.9997H51C49.8061 54.6297 48.7032 54.0356 47.6911 53.2175C47.6807 53.2098 47.6708 53.2015 47.6616 53.1925C46.3562 52.1266 45.6282 50.4913 45.6282 48.7887V6.13779C45.6282 4.4335 46.3562 2.79485 47.6616 1.72757C47.6715 1.71999 47.6814 1.7099 47.6911 1.70232C48.7043 0.8844 49.8072 0.31724 51 0.000841878H34.0274C35.2213 0.315183 36.3241 0.882344 37.336 1.70232C37.3473 1.71012 37.358 1.71855 37.3683 1.72757C38.6734 2.79345 39.3992 4.42873 39.3992 6.13274V27.0658H36.5134C35.6257 26.3367 34.6682 25.6999 33.6554 25.1652C31.1639 23.8489 28.5428 23.0837 25.7921 22.8696C27.4353 21.9167 29.0095 20.8458 30.5027 19.6652C31.9293 18.5322 33.0976 17.2526 34.0075 15.8264C34.914 14.4043 35.3681 12.716 35.3697 10.7617C35.3697 7.01621 33.7995 4.28606 30.6592 2.5713C27.5164 0.859343 23.0131 0.00261819 17.1492 0.00112222L0 0ZM11.9331 0.790435H17.1489C19.3804 0.790435 21.3923 1.04129 23.1845 1.543C24.9766 2.04471 26.4039 2.94164 27.4664 4.23379C28.5289 5.52519 29.0606 7.3586 29.0616 9.73402C29.0616 11.7375 28.6727 13.518 27.895 15.0755C27.1173 16.633 26.1175 18.0837 24.8955 19.4276C23.6772 20.7718 22.3406 22.1168 20.8859 23.4628C19.66 24.5981 18.463 25.7988 17.2949 27.065H11.9331V0.790435ZM11.9331 27.8554H16.5741C15.2339 29.3585 14.116 31.0518 13.2555 32.8821C12.3737 34.7549 11.9329 36.9306 11.9331 39.4093V27.8554ZM34.7449 46.4146C33.9673 48.4989 32.7866 50.1602 31.2031 51.3987C29.6196 52.6372 27.5558 53.2573 25.0117 53.259C23.0405 53.259 21.1071 52.6783 19.2116 51.5171C17.3165 50.3592 15.7595 48.7373 14.5404 46.6513C13.3214 44.5654 12.7115 42.1778 12.7107 39.4886C12.7107 36.1636 13.6452 33.2353 15.5141 30.7035C16.3846 29.6901 17.3222 28.7381 18.3202 27.8543C18.6224 27.5822 18.932 27.3213 19.2463 27.0638C20.8928 25.7237 22.6685 24.5565 24.5464 23.5801C27.4836 23.5801 29.9702 24.7413 32.0059 27.0638C32.2289 27.3129 32.442 27.5774 32.6522 27.8543C32.6622 27.8669 32.6721 27.8823 32.682 27.8944C34.8367 30.7693 35.914 34.634 35.914 39.4886C35.914 42.0217 35.5243 44.3303 34.7449 46.4146ZM37.4122 27.8554H39.3992V30.078C38.7993 29.282 38.1347 28.5385 37.4125 27.8554H37.4122Z" fill="black"/>
</svg>